<mxfile host="65bd71144e">
    <diagram name="Página-1" id="507ssJq4naJnl4tNUfq0">
        <mxGraphModel dx="1696" dy="586" grid="1" gridSize="10" guides="1" tooltips="1" connect="1" arrows="1" fold="1" page="1" pageScale="1" pageWidth="827" pageHeight="1169" math="0" shadow="0">
            <root>
                <mxCell id="0"/>
                <mxCell id="1" parent="0"/>
                <mxCell id="s4LA91QQ77V4tFSlohtm-96" style="edgeStyle=orthogonalEdgeStyle;rounded=0;orthogonalLoop=1;jettySize=auto;html=1;exitX=1;exitY=0.5;exitDx=0;exitDy=0;entryX=0;entryY=0.5;entryDx=0;entryDy=0;strokeWidth=6;endArrow=none;endFill=0;" parent="1" source="s4LA91QQ77V4tFSlohtm-98" edge="1">
                    <mxGeometry relative="1" as="geometry">
                        <mxPoint x="420.00000000001" y="244.9999999999999" as="targetPoint"/>
                    </mxGeometry>
                </mxCell>
                <mxCell id="s4LA91QQ77V4tFSlohtm-97" style="edgeStyle=orthogonalEdgeStyle;rounded=0;orthogonalLoop=1;jettySize=auto;html=1;exitX=1;exitY=0.75;exitDx=0;exitDy=0;entryX=0;entryY=0.5;entryDx=0;entryDy=0;strokeWidth=5;endArrow=none;endFill=0;" parent="1" source="s4LA91QQ77V4tFSlohtm-98" target="s4LA91QQ77V4tFSlohtm-115" edge="1">
                    <mxGeometry relative="1" as="geometry"/>
                </mxCell>
                <mxCell id="s4LA91QQ77V4tFSlohtm-98" value="" style="rounded=0;whiteSpace=wrap;html=1;strokeWidth=5;fillColor=none;" parent="1" vertex="1">
                    <mxGeometry x="-120" y="120" width="500" height="250" as="geometry"/>
                </mxCell>
                <mxCell id="s4LA91QQ77V4tFSlohtm-99" style="edgeStyle=orthogonalEdgeStyle;rounded=0;orthogonalLoop=1;jettySize=auto;html=1;exitX=1;exitY=0.5;exitDx=0;exitDy=0;entryX=0;entryY=0.5;entryDx=0;entryDy=0;strokeWidth=5;endArrow=none;endFill=0;" parent="1" source="s4LA91QQ77V4tFSlohtm-100" target="s4LA91QQ77V4tFSlohtm-113" edge="1">
                    <mxGeometry relative="1" as="geometry"/>
                </mxCell>
                <mxCell id="s4LA91QQ77V4tFSlohtm-100" value="&lt;font style=&quot;font-size: 27px;&quot;&gt;Deck&lt;/font&gt;" style="rounded=0;whiteSpace=wrap;html=1;fillColor=#1ba1e2;strokeColor=#006EAF;fontColor=#ffffff;strokeWidth=5;" parent="1" vertex="1">
                    <mxGeometry x="-470" y="195" width="90" height="40" as="geometry"/>
                </mxCell>
                <mxCell id="s4LA91QQ77V4tFSlohtm-101" value="" style="edgeStyle=orthogonalEdgeStyle;rounded=0;orthogonalLoop=1;jettySize=auto;html=1;endArrow=none;endFill=0;strokeWidth=5;" parent="1" source="s4LA91QQ77V4tFSlohtm-102" target="s4LA91QQ77V4tFSlohtm-123" edge="1">
                    <mxGeometry relative="1" as="geometry"/>
                </mxCell>
                <mxCell id="s4LA91QQ77V4tFSlohtm-102" value="&lt;font style=&quot;font-size: 27px;&quot;&gt;Tournament&lt;/font&gt;" style="rounded=0;whiteSpace=wrap;html=1;fillColor=#1ba1e2;strokeColor=#006EAF;fontColor=#ffffff;strokeWidth=5;" parent="1" vertex="1">
                    <mxGeometry x="75" y="290" width="160" height="40" as="geometry"/>
                </mxCell>
                <mxCell id="s4LA91QQ77V4tFSlohtm-103" style="edgeStyle=orthogonalEdgeStyle;rounded=0;orthogonalLoop=1;jettySize=auto;html=1;exitX=0;exitY=0.5;exitDx=0;exitDy=0;entryX=1;entryY=0.5;entryDx=0;entryDy=0;strokeWidth=5;endArrow=none;endFill=0;" parent="1" source="s4LA91QQ77V4tFSlohtm-106" target="s4LA91QQ77V4tFSlohtm-113" edge="1">
                    <mxGeometry relative="1" as="geometry"/>
                </mxCell>
                <mxCell id="s4LA91QQ77V4tFSlohtm-104" value="" style="edgeStyle=orthogonalEdgeStyle;rounded=0;orthogonalLoop=1;jettySize=auto;html=1;endArrow=none;endFill=0;strokeWidth=5;" parent="1" source="s4LA91QQ77V4tFSlohtm-106" edge="1">
                    <mxGeometry relative="1" as="geometry">
                        <mxPoint x="100" y="214.99999999999994" as="targetPoint"/>
                    </mxGeometry>
                </mxCell>
                <mxCell id="s4LA91QQ77V4tFSlohtm-105" style="edgeStyle=orthogonalEdgeStyle;rounded=0;orthogonalLoop=1;jettySize=auto;html=1;exitX=0.5;exitY=1;exitDx=0;exitDy=0;endArrow=none;endFill=0;strokeWidth=5;entryX=0;entryY=0.5;entryDx=0;entryDy=0;" parent="1" source="s4LA91QQ77V4tFSlohtm-106" target="s4LA91QQ77V4tFSlohtm-131" edge="1">
                    <mxGeometry relative="1" as="geometry">
                        <mxPoint x="-15" y="400" as="targetPoint"/>
                    </mxGeometry>
                </mxCell>
                <mxCell id="s4LA91QQ77V4tFSlohtm-106" value="&lt;pre dir=&quot;ltr&quot; style=&quot;text-align: left; line-height: 100%; font-size: 27px;&quot; id=&quot;tw-target-text&quot; data-placeholder=&quot;Traducción&quot; class=&quot;tw-data-text tw-text-large tw-ta&quot;&gt;&lt;font style=&quot;font-size: 27px;&quot;&gt;User&lt;/font&gt;&lt;/pre&gt;" style="rounded=0;whiteSpace=wrap;html=1;fillColor=#1ba1e2;strokeColor=#006EAF;fontColor=#ffffff;strokeWidth=5;" parent="1" vertex="1">
                    <mxGeometry x="-60" y="195" width="90" height="40" as="geometry"/>
                </mxCell>
                <mxCell id="s4LA91QQ77V4tFSlohtm-107" style="edgeStyle=orthogonalEdgeStyle;rounded=0;orthogonalLoop=1;jettySize=auto;html=1;entryX=1;entryY=0.5;entryDx=0;entryDy=0;endArrow=none;endFill=0;strokeWidth=5;" parent="1" source="s4LA91QQ77V4tFSlohtm-108" edge="1">
                    <mxGeometry relative="1" as="geometry">
                        <mxPoint x="210" y="214.99999999999994" as="targetPoint"/>
                    </mxGeometry>
                </mxCell>
                <mxCell id="s4LA91QQ77V4tFSlohtm-108" value="&lt;font style=&quot;font-size: 27px;&quot;&gt;Date&lt;/font&gt;" style="rounded=0;whiteSpace=wrap;html=1;fillColor=#1ba1e2;strokeColor=#006EAF;fontColor=#ffffff;perimeterSpacing=0;strokeWidth=5;" parent="1" vertex="1">
                    <mxGeometry x="290" y="195" width="80" height="40" as="geometry"/>
                </mxCell>
                <mxCell id="s4LA91QQ77V4tFSlohtm-109" style="edgeStyle=orthogonalEdgeStyle;rounded=0;orthogonalLoop=1;jettySize=auto;html=1;exitX=1;exitY=0.5;exitDx=0;exitDy=0;entryX=1;entryY=0.5;entryDx=0;entryDy=0;" parent="1" edge="1">
                    <mxGeometry relative="1" as="geometry">
                        <mxPoint x="225" y="215" as="sourcePoint"/>
                        <mxPoint x="225" y="215" as="targetPoint"/>
                    </mxGeometry>
                </mxCell>
                <mxCell id="s4LA91QQ77V4tFSlohtm-110" style="edgeStyle=orthogonalEdgeStyle;rounded=0;orthogonalLoop=1;jettySize=auto;html=1;exitX=0.5;exitY=1;exitDx=0;exitDy=0;" parent="1" edge="1">
                    <mxGeometry relative="1" as="geometry">
                        <mxPoint x="170" y="250" as="sourcePoint"/>
                        <mxPoint x="170" y="250" as="targetPoint"/>
                    </mxGeometry>
                </mxCell>
                <mxCell id="s4LA91QQ77V4tFSlohtm-111" style="edgeStyle=orthogonalEdgeStyle;rounded=0;orthogonalLoop=1;jettySize=auto;html=1;exitX=0.5;exitY=1;exitDx=0;exitDy=0;" parent="1" source="s4LA91QQ77V4tFSlohtm-98" target="s4LA91QQ77V4tFSlohtm-98" edge="1">
                    <mxGeometry relative="1" as="geometry"/>
                </mxCell>
                <mxCell id="s4LA91QQ77V4tFSlohtm-112" value="&lt;font style=&quot;font-size: 27px;&quot;&gt;Match&lt;/font&gt;" style="text;html=1;strokeColor=none;fillColor=none;align=center;verticalAlign=middle;whiteSpace=wrap;rounded=0;" parent="1" vertex="1">
                    <mxGeometry x="280" y="320" width="60" height="30" as="geometry"/>
                </mxCell>
                <mxCell id="s4LA91QQ77V4tFSlohtm-113" value="&lt;font style=&quot;font-size: 17px;&quot;&gt;Has&lt;/font&gt;" style="rhombus;whiteSpace=wrap;html=1;fillColor=#008a00;fontColor=#ffffff;strokeColor=#005700;strokeWidth=5;" parent="1" vertex="1">
                    <mxGeometry x="-294" y="180" width="110" height="70" as="geometry"/>
                </mxCell>
                <mxCell id="s4LA91QQ77V4tFSlohtm-114" style="edgeStyle=orthogonalEdgeStyle;rounded=0;orthogonalLoop=1;jettySize=auto;html=1;exitX=1;exitY=0.5;exitDx=0;exitDy=0;entryX=0.5;entryY=1;entryDx=0;entryDy=0;endArrow=none;endFill=0;strokeWidth=5;" parent="1" target="s4LA91QQ77V4tFSlohtm-102" edge="1">
                    <mxGeometry relative="1" as="geometry">
                        <mxPoint x="40" y="435" as="sourcePoint"/>
                    </mxGeometry>
                </mxCell>
                <mxCell id="s4LA91QQ77V4tFSlohtm-115" value="&lt;pre dir=&quot;ltr&quot; style=&quot;text-align:left&quot; id=&quot;tw-target-text&quot; data-placeholder=&quot;Traducción&quot; class=&quot;tw-data-text tw-text-large tw-ta&quot;&gt;&lt;span style=&quot;font-size: 20px;&quot; lang=&quot;en&quot; class=&quot;Y2IQFc&quot;&gt;Round&lt;/span&gt;&lt;/pre&gt;" style="ellipse;whiteSpace=wrap;html=1;fillColor=#a0522d;strokeColor=#6D1F00;fontColor=#ffffff;strokeWidth=5;" parent="1" vertex="1">
                    <mxGeometry x="420" y="283" width="80" height="50" as="geometry"/>
                </mxCell>
                <mxCell id="s4LA91QQ77V4tFSlohtm-116" value="&lt;b&gt;&lt;font color=&quot;#007fff&quot; style=&quot;font-size: 20px;&quot;&gt;[1,1]&lt;/font&gt;&lt;/b&gt;" style="text;html=1;strokeColor=none;fillColor=none;align=center;verticalAlign=middle;whiteSpace=wrap;rounded=0;" parent="1" vertex="1">
                    <mxGeometry x="-109" y="190" width="40" height="20" as="geometry"/>
                </mxCell>
                <mxCell id="s4LA91QQ77V4tFSlohtm-117" value="&lt;b&gt;&lt;font color=&quot;#007fff&quot; style=&quot;font-size: 20px;&quot;&gt;[1,*]&lt;/font&gt;&lt;/b&gt;" style="text;html=1;strokeColor=none;fillColor=none;align=center;verticalAlign=middle;whiteSpace=wrap;rounded=0;" parent="1" vertex="1">
                    <mxGeometry x="-372" y="190" width="40" height="20" as="geometry"/>
                </mxCell>
                <mxCell id="s4LA91QQ77V4tFSlohtm-118" value="&lt;b&gt;&lt;font color=&quot;#007fff&quot; style=&quot;font-size: 20px;&quot;&gt;[1,1]&lt;/font&gt;&lt;/b&gt;" style="text;html=1;strokeColor=none;fillColor=none;align=center;verticalAlign=middle;whiteSpace=wrap;rounded=0;" parent="1" vertex="1">
                    <mxGeometry x="36" y="223" width="40" height="20" as="geometry"/>
                </mxCell>
                <mxCell id="s4LA91QQ77V4tFSlohtm-119" value="&lt;b&gt;&lt;font color=&quot;#007fff&quot; style=&quot;font-size: 20px;&quot;&gt;[1,1]&lt;/font&gt;&lt;/b&gt;" style="text;html=1;strokeColor=none;fillColor=none;align=center;verticalAlign=middle;whiteSpace=wrap;rounded=0;" parent="1" vertex="1">
                    <mxGeometry x="37" y="178" width="40" height="20" as="geometry"/>
                </mxCell>
                <mxCell id="s4LA91QQ77V4tFSlohtm-120" value="&lt;b&gt;&lt;font color=&quot;#007fff&quot; style=&quot;font-size: 20px;&quot;&gt;[1,*]&lt;/font&gt;&lt;/b&gt;" style="text;html=1;strokeColor=none;fillColor=none;align=center;verticalAlign=middle;whiteSpace=wrap;rounded=0;" parent="1" vertex="1">
                    <mxGeometry x="244" y="188.5" width="40" height="25" as="geometry"/>
                </mxCell>
                <mxCell id="s4LA91QQ77V4tFSlohtm-121" value="&lt;b&gt;&lt;font color=&quot;#007fff&quot; style=&quot;font-size: 20px;&quot;&gt;[1,1]&lt;/font&gt;&lt;/b&gt;" style="text;html=1;strokeColor=none;fillColor=none;align=center;verticalAlign=middle;whiteSpace=wrap;rounded=0;" parent="1" vertex="1">
                    <mxGeometry x="163" y="263" width="40" height="20" as="geometry"/>
                </mxCell>
                <mxCell id="s4LA91QQ77V4tFSlohtm-122" value="" style="endArrow=none;html=1;rounded=0;entryX=0.5;entryY=0;entryDx=0;entryDy=0;exitX=1;exitY=0.5;exitDx=0;exitDy=0;targetPerimeterSpacing=1;strokeWidth=6;endSize=5;" parent="1" source="s4LA91QQ77V4tFSlohtm-106" edge="1">
                    <mxGeometry width="50" height="50" relative="1" as="geometry">
                        <mxPoint x="120" y="260" as="sourcePoint"/>
                        <mxPoint x="155" y="179.99999999999994" as="targetPoint"/>
                    </mxGeometry>
                </mxCell>
                <mxCell id="s4LA91QQ77V4tFSlohtm-123" value="&lt;font style=&quot;font-size: 17px;&quot;&gt;Play&lt;/font&gt;" style="rhombus;whiteSpace=wrap;html=1;fillColor=#008a00;fontColor=#ffffff;strokeColor=#005700;strokeWidth=6;" parent="1" vertex="1">
                    <mxGeometry x="100" y="180" width="110" height="70" as="geometry"/>
                </mxCell>
                <mxCell id="s4LA91QQ77V4tFSlohtm-124" value="" style="edgeStyle=orthogonalEdgeStyle;rounded=0;orthogonalLoop=1;jettySize=auto;html=1;endSize=10;endArrow=none;endFill=0;strokeWidth=5;" parent="1" source="s4LA91QQ77V4tFSlohtm-125" target="s4LA91QQ77V4tFSlohtm-127" edge="1">
                    <mxGeometry relative="1" as="geometry"/>
                </mxCell>
                <mxCell id="s4LA91QQ77V4tFSlohtm-125" value="&lt;font style=&quot;font-size: 27px;&quot;&gt;Role&lt;/font&gt;" style="rounded=0;whiteSpace=wrap;html=1;fillColor=#1ba1e2;strokeColor=#006EAF;fontColor=#ffffff;strokeWidth=5;" parent="1" vertex="1">
                    <mxGeometry x="-280" y="45" width="90" height="40" as="geometry"/>
                </mxCell>
                <mxCell id="s4LA91QQ77V4tFSlohtm-126" value="" style="edgeStyle=orthogonalEdgeStyle;rounded=0;orthogonalLoop=1;jettySize=auto;html=1;strokeWidth=5;endArrow=none;endFill=0;" parent="1" source="s4LA91QQ77V4tFSlohtm-127" target="s4LA91QQ77V4tFSlohtm-106" edge="1">
                    <mxGeometry relative="1" as="geometry"/>
                </mxCell>
                <mxCell id="s4LA91QQ77V4tFSlohtm-127" value="&lt;font style=&quot;font-size: 17px;&quot;&gt;Is&lt;/font&gt;" style="rhombus;whiteSpace=wrap;html=1;fillColor=#008a00;fontColor=#ffffff;strokeColor=#005700;strokeWidth=6;" parent="1" vertex="1">
                    <mxGeometry x="-70" y="30" width="110" height="70" as="geometry"/>
                </mxCell>
                <mxCell id="s4LA91QQ77V4tFSlohtm-128" value="&lt;pre dir=&quot;ltr&quot; style=&quot;text-align: left; font-size: 11px;&quot; id=&quot;tw-target-text&quot; data-placeholder=&quot;Traducción&quot; class=&quot;tw-data-text tw-text-large tw-ta&quot;&gt;&lt;font style=&quot;font-size: 20px;&quot;&gt;Result&lt;/font&gt;&lt;/pre&gt;" style="ellipse;whiteSpace=wrap;html=1;fillColor=#a0522d;strokeColor=#6D1F00;fontColor=#ffffff;strokeWidth=5;" parent="1" vertex="1">
                    <mxGeometry x="420" y="220" width="80" height="50" as="geometry"/>
                </mxCell>
                <mxCell id="s4LA91QQ77V4tFSlohtm-129" value="&lt;pre dir=&quot;ltr&quot; style=&quot;text-align: left; font-size: 11px;&quot; id=&quot;tw-target-text&quot; data-placeholder=&quot;Traducción&quot; class=&quot;tw-data-text tw-text-large tw-ta&quot;&gt;&lt;font style=&quot;font-size: 20px;&quot;&gt;Date&lt;/font&gt;&lt;/pre&gt;" style="ellipse;whiteSpace=wrap;html=1;fillColor=#a0522d;strokeColor=#6D1F00;fontColor=#ffffff;strokeWidth=5;" parent="1" vertex="1">
                    <mxGeometry x="-217" y="349" width="80" height="50" as="geometry"/>
                </mxCell>
                <mxCell id="s4LA91QQ77V4tFSlohtm-130" value="&lt;pre dir=&quot;ltr&quot; style=&quot;text-align: left; font-size: 11px;&quot; id=&quot;tw-target-text&quot; data-placeholder=&quot;Traducción&quot; class=&quot;tw-data-text tw-text-large tw-ta&quot;&gt;&lt;font style=&quot;font-size: 17px;&quot;&gt;Status&lt;/font&gt;&lt;br&gt;&lt;/pre&gt;" style="ellipse;whiteSpace=wrap;html=1;fillColor=#a0522d;strokeColor=#6D1F00;fontColor=#ffffff;strokeWidth=5;" parent="1" vertex="1">
                    <mxGeometry x="-334" y="349" width="80" height="50" as="geometry"/>
                </mxCell>
                <mxCell id="s4LA91QQ77V4tFSlohtm-131" value="&lt;font style=&quot;font-size: 17px;&quot;&gt;Create&lt;/font&gt;" style="rhombus;whiteSpace=wrap;html=1;fillColor=#008a00;fontColor=#ffffff;strokeColor=#005700;strokeWidth=5;" parent="1" vertex="1">
                    <mxGeometry x="15" y="400" width="110" height="70" as="geometry"/>
                </mxCell>
                <mxCell id="s4LA91QQ77V4tFSlohtm-132" value="&lt;b&gt;&lt;font color=&quot;#007fff&quot; style=&quot;font-size: 20px;&quot;&gt;[1,*]&lt;/font&gt;&lt;/b&gt;" style="text;html=1;strokeColor=none;fillColor=none;align=center;verticalAlign=middle;whiteSpace=wrap;rounded=0;" parent="1" vertex="1">
                    <mxGeometry x="-180" y="40" width="40" height="20" as="geometry"/>
                </mxCell>
                <mxCell id="s4LA91QQ77V4tFSlohtm-133" value="&lt;b&gt;&lt;font color=&quot;#007fff&quot; style=&quot;font-size: 20px;&quot;&gt;[1,*]&lt;/font&gt;&lt;/b&gt;" style="text;html=1;strokeColor=none;fillColor=none;align=center;verticalAlign=middle;whiteSpace=wrap;rounded=0;" parent="1" vertex="1">
                    <mxGeometry x="-60" y="165" width="40" height="25" as="geometry"/>
                </mxCell>
                <mxCell id="s4LA91QQ77V4tFSlohtm-134" value="&lt;b&gt;&lt;font color=&quot;#007fff&quot; style=&quot;font-size: 20px;&quot;&gt;[1,1]&lt;/font&gt;&lt;/b&gt;" style="text;html=1;strokeColor=none;fillColor=none;align=center;verticalAlign=middle;whiteSpace=wrap;rounded=0;" parent="1" vertex="1">
                    <mxGeometry x="-60" y="243" width="40" height="20" as="geometry"/>
                </mxCell>
                <mxCell id="s4LA91QQ77V4tFSlohtm-135" value="&lt;b&gt;&lt;font color=&quot;#007fff&quot; style=&quot;font-size: 20px;&quot;&gt;[1,*]&lt;/font&gt;&lt;/b&gt;" style="text;html=1;strokeColor=none;fillColor=none;align=center;verticalAlign=middle;whiteSpace=wrap;rounded=0;" parent="1" vertex="1">
                    <mxGeometry x="160" y="335" width="40" height="25" as="geometry"/>
                </mxCell>
                <mxCell id="s4LA91QQ77V4tFSlohtm-136" value="&lt;b&gt;&lt;font color=&quot;#007fff&quot; style=&quot;font-size: 20px;&quot;&gt;[1,1]&lt;/font&gt;&lt;/b&gt;" style="text;html=1;strokeColor=none;fillColor=none;align=center;verticalAlign=middle;whiteSpace=wrap;rounded=0;" parent="1" vertex="1">
                    <mxGeometry x="-420" y="243" width="40" height="20" as="geometry"/>
                </mxCell>
                <mxCell id="s4LA91QQ77V4tFSlohtm-137" style="edgeStyle=orthogonalEdgeStyle;rounded=0;orthogonalLoop=1;jettySize=auto;html=1;exitX=0;exitY=0.5;exitDx=0;exitDy=0;entryX=0.5;entryY=1;entryDx=0;entryDy=0;endArrow=none;endFill=0;strokeWidth=5;" parent="1" source="s4LA91QQ77V4tFSlohtm-141" target="s4LA91QQ77V4tFSlohtm-100" edge="1">
                    <mxGeometry relative="1" as="geometry"/>
                </mxCell>
                <mxCell id="s4LA91QQ77V4tFSlohtm-138" style="edgeStyle=orthogonalEdgeStyle;rounded=0;orthogonalLoop=1;jettySize=auto;html=1;exitX=1;exitY=0.5;exitDx=0;exitDy=0;strokeWidth=5;endArrow=none;endFill=0;" parent="1" source="s4LA91QQ77V4tFSlohtm-141" target="s4LA91QQ77V4tFSlohtm-102" edge="1">
                    <mxGeometry relative="1" as="geometry"/>
                </mxCell>
                <mxCell id="s4LA91QQ77V4tFSlohtm-139" style="edgeStyle=orthogonalEdgeStyle;rounded=0;orthogonalLoop=1;jettySize=auto;html=1;exitX=1;exitY=1;exitDx=0;exitDy=0;entryX=0.5;entryY=0;entryDx=0;entryDy=0;strokeWidth=5;endArrow=none;endFill=0;" parent="1" source="s4LA91QQ77V4tFSlohtm-141" target="s4LA91QQ77V4tFSlohtm-129" edge="1">
                    <mxGeometry relative="1" as="geometry"/>
                </mxCell>
                <mxCell id="s4LA91QQ77V4tFSlohtm-140" style="edgeStyle=orthogonalEdgeStyle;rounded=0;orthogonalLoop=1;jettySize=auto;html=1;exitX=0;exitY=1;exitDx=0;exitDy=0;entryX=0.5;entryY=0;entryDx=0;entryDy=0;strokeWidth=5;endArrow=none;endFill=0;" parent="1" source="s4LA91QQ77V4tFSlohtm-141" target="s4LA91QQ77V4tFSlohtm-130" edge="1">
                    <mxGeometry relative="1" as="geometry"/>
                </mxCell>
                <mxCell id="s4LA91QQ77V4tFSlohtm-141" value="&lt;font style=&quot;font-size: 17px;&quot;&gt;Request&lt;/font&gt; " style="rhombus;whiteSpace=wrap;html=1;fillColor=#008a00;fontColor=#ffffff;strokeColor=#005700;strokeWidth=5;" parent="1" vertex="1">
                    <mxGeometry x="-290" y="275" width="110" height="70" as="geometry"/>
                </mxCell>
                <mxCell id="s4LA91QQ77V4tFSlohtm-142" value="" style="endArrow=none;html=1;rounded=0;entryX=0;entryY=0.5;entryDx=0;entryDy=0;exitX=1;exitY=0.5;exitDx=0;exitDy=0;strokeWidth=5;" parent="1" source="s4LA91QQ77V4tFSlohtm-141" target="s4LA91QQ77V4tFSlohtm-106" edge="1">
                    <mxGeometry width="50" height="50" relative="1" as="geometry">
                        <mxPoint x="-185" y="310" as="sourcePoint"/>
                        <mxPoint x="-135" y="263" as="targetPoint"/>
                    </mxGeometry>
                </mxCell>
                <mxCell id="s4LA91QQ77V4tFSlohtm-143" value="&lt;b&gt;&lt;font color=&quot;#007fff&quot; style=&quot;font-size: 20px;&quot;&gt;[1,*]&lt;/font&gt;&lt;/b&gt;" style="text;html=1;strokeColor=none;fillColor=none;align=center;verticalAlign=middle;whiteSpace=wrap;rounded=0;" parent="1" vertex="1">
                    <mxGeometry x="30" y="277" width="40" height="25" as="geometry"/>
                </mxCell>
                <mxCell id="s4LA91QQ77V4tFSlohtm-144" value="&lt;b&gt;&lt;font color=&quot;#007fff&quot; style=&quot;font-size: 20px;&quot;&gt;[1,1]&lt;/font&gt;&lt;/b&gt;" style="text;html=1;strokeColor=none;fillColor=none;align=center;verticalAlign=middle;whiteSpace=wrap;rounded=0;" parent="1" vertex="1">
                    <mxGeometry x="-175" y="250" width="40" height="20" as="geometry"/>
                </mxCell>
            </root>
        </mxGraphModel>
    </diagram>
</mxfile>